<?xml version="1.0" encoding="UTF-8" standalone="no"?>
<!DOCTYPE svg PUBLIC "-//W3C//DTD SVG 1.1//EN" "http://www.w3.org/Graphics/SVG/1.1/DTD/svg11.dtd">
<!-- Создано Microsoft Visio, экспорт SVG fabric_method.svg Page-1 -->
<svg xmlns="http://www.w3.org/2000/svg" xmlns:xlink="http://www.w3.org/1999/xlink" xmlns:ev="http://www.w3.org/2001/xml-events"
		xmlns:v="http://schemas.microsoft.com/visio/2003/SVGExtensions/" width="11.6929in" height="8.26772in"
		viewBox="0 0 841.89 595.276" xml:space="preserve" color-interpolation-filters="sRGB" class="st19">
	<v:documentProperties v:langID="1049" v:metric="true" v:viewMarkup="false">
		<v:userDefs>
			<v:ud v:nameU="msvSubprocessMaster" v:prompt="" v:val="VT4(Rectangle)"/>
			<v:ud v:nameU="msvNoAutoConnect" v:val="VT0(1):26"/>
		</v:userDefs>
	</v:documentProperties>

	<style type="text/css">
	<![CDATA[
		.st1 {visibility:visible}
		.st2 {fill:#70ad47;fill-opacity:0.25;filter:url(#filter_2);stroke:#70ad47;stroke-opacity:0.25}
		.st3 {fill:#61973d;stroke:#507e31;stroke-width:0.75}
		.st4 {fill:#feffff;font-family:Calibri;font-size:0.833336em}
		.st5 {font-size:1em}
		.st6 {fill:#5b9bd5;fill-opacity:0.22;filter:url(#filter_2);stroke:#5b9bd5;stroke-opacity:0.22}
		.st7 {fill:#5b9bd5;stroke:#c7c8c8;stroke-width:0.25}
		.st8 {marker-end:url(#mrkr4-27);stroke:#5b9bd5;stroke-linecap:round;stroke-linejoin:round;stroke-width:1}
		.st9 {fill:#5b9bd5;fill-opacity:1;stroke:#5b9bd5;stroke-opacity:1;stroke-width:0.28409090909091}
		.st10 {fill:#fec000;fill-opacity:0.22;filter:url(#filter_2);stroke:#fec000;stroke-opacity:0.22}
		.st11 {fill:#fec000;stroke:#c7c8c8;stroke-width:0.25}
		.st12 {marker-end:url(#mrkr4-57);stroke:#ed7d31;stroke-dasharray:3,3;stroke-linecap:round;stroke-linejoin:round;stroke-width:1}
		.st13 {fill:#ed7d31;fill-opacity:1;stroke:#ed7d31;stroke-opacity:1;stroke-width:0.28409090909091}
		.st14 {fill:url(#grad0-82);stroke:#386288;stroke-width:0.75}
		.st15 {fill:#386288;font-family:Calibri;font-size:0.833336em}
		.st16 {marker-end:url(#mrkr4-57);stroke:#ed7d31;stroke-linecap:round;stroke-linejoin:round;stroke-width:1}
		.st17 {fill:#ed7d31;fill-opacity:0.25;filter:url(#filter_2);stroke:#ed7d31;stroke-opacity:0.25}
		.st18 {fill:#d06d29;stroke:#ae5a21;stroke-width:0.75}
		.st19 {fill:none;fill-rule:evenodd;font-size:12px;overflow:visible;stroke-linecap:square;stroke-miterlimit:3}
	]]>
	</style>

	<defs id="Patterns_And_Gradients">
		<linearGradient id="grad0-82" x1="0" y1="0" x2="1" y2="0" gradientTransform="rotate(60 0.5 0.5)">
			<stop offset="0" stop-color="#e8ebef" stop-opacity="1"/>
			<stop offset="0.24" stop-color="#f4f5f7" stop-opacity="1"/>
			<stop offset="0.54" stop-color="#feffff" stop-opacity="1"/>
		</linearGradient>
	</defs>
	<defs id="Markers">
		<g id="lend4">
			<path d="M 2 1 L 0 0 L 2 -1 L 2 1 " style="stroke:none"/>
		</g>
		<marker id="mrkr4-27" class="st9" v:arrowType="4" v:arrowSize="2" v:setback="7.04" refX="-7.04" orient="auto"
				markerUnits="strokeWidth" overflow="visible">
			<use xlink:href="#lend4" transform="scale(-3.52,-3.52) "/>
		</marker>
		<marker id="mrkr4-57" class="st13" v:arrowType="4" v:arrowSize="2" v:setback="7.04" refX="-7.04" orient="auto"
				markerUnits="strokeWidth" overflow="visible">
			<use xlink:href="#lend4" transform="scale(-3.52,-3.52) "/>
		</marker>
	</defs>
	<defs id="Filters">
		<filter id="filter_2">
			<feGaussianBlur stdDeviation="2"/>
		</filter>
	</defs>
	<g v:mID="0" v:index="1" v:groupContext="foregroundPage">
		<v:userDefs>
			<v:ud v:nameU="msvThemeOrder" v:val="VT0(0):26"/>
		</v:userDefs>
		<title>Страница-1</title>
		<v:pageProperties v:drawingScale="0.0393701" v:pageScale="0.0393701" v:drawingUnits="24" v:shadowOffsetX="8.50394"
				v:shadowOffsetY="-8.50394"/>
		<v:layer v:name="Соединительная линия" v:index="0"/>
		<g id="shape4-1" v:mID="4" v:groupContext="shape" transform="translate(56.6929,-510.236)">
			<title>Прямоугольник со скругленными углами</title>
			<desc>Interface Button</desc>
			<v:userDefs>
				<v:ud v:nameU="CTypeTopLeftSnip" v:prompt="" v:val="VT0(0):5"/>
				<v:ud v:nameU="CTypeTopRightSnip" v:prompt="" v:val="VT0(0):5"/>
				<v:ud v:nameU="CTypeBotLeftSnip" v:prompt="" v:val="VT0(0):5"/>
				<v:ud v:nameU="CTypeBotRightSnip" v:prompt="" v:val="VT0(0):5"/>
				<v:ud v:nameU="CornerLockHoriz" v:prompt="" v:val="VT0(0):5"/>
				<v:ud v:nameU="CornerLockVert" v:prompt="" v:val="VT0(0):5"/>
				<v:ud v:nameU="CornerLockDiag" v:prompt="" v:val="VT0(0):5"/>
				<v:ud v:nameU="TopLeftOffset" v:prompt="" v:val="VT0(0.15748031496063):24"/>
				<v:ud v:nameU="TopRightOffset" v:prompt="" v:val="VT0(0.15748031496063):24"/>
				<v:ud v:nameU="BotLeftOffset" v:prompt="" v:val="VT0(0.15748031496063):24"/>
				<v:ud v:nameU="BotRightOffset" v:prompt="" v:val="VT0(0.15748031496063):24"/>
				<v:ud v:nameU="visVersion" v:prompt="" v:val="VT0(15):26"/>
				<v:ud v:nameU="TopLeftOffset" v:prompt="" v:val="VT0(0.078740157480315):1"/>
				<v:ud v:nameU="TopRightOffset" v:prompt="" v:val="VT0(0.078740157480315):1"/>
				<v:ud v:nameU="BotLeftOffset" v:prompt="" v:val="VT0(0.078740157480315):1"/>
				<v:ud v:nameU="BotRightOffset" v:prompt="" v:val="VT0(0.078740157480315):1"/>
			</v:userDefs>
			<v:textBlock v:margins="rect(4,4,4,4)" v:tabSpace="42.5197"/>
			<v:textRect cx="28.3465" cy="574.016" width="56.7" height="42.5197"/>
			<g id="shadow4-2" v:groupContext="shadow" v:shadowOffsetX="0.345598" v:shadowOffsetY="-1.97279" v:shadowType="1"
					transform="matrix(1,0,0,1,0.345598,1.97279)" class="st1">
				<path d="M5.67 595.28 L51.02 595.28 A5.6692 5.6692 -180 0 0 56.69 589.61 L56.69 558.43 A5.6692 5.6692 -180 0 0 51.02
							 552.76 L5.67 552.76 A5.6692 5.6692 -180 0 0 0 558.43 L0 589.61 A5.6692 5.6692 -180 0 0 5.67 595.28 Z"
						class="st2"/>
			</g>
			<path d="M5.67 595.28 L51.02 595.28 A5.6692 5.6692 -180 0 0 56.69 589.61 L56.69 558.43 A5.6692 5.6692 -180 0 0 51.02
						 552.76 L5.67 552.76 A5.6692 5.6692 -180 0 0 0 558.43 L0 589.61 A5.6692 5.6692 -180 0 0 5.67 595.28 Z"
					class="st3"/>
			<text x="10.03" y="571.02" class="st4" v:langID="1033"><v:paragraph v:horizAlign="1"/><v:tabList/>Interface <tspan
						x="14.39" dy="1.2em" class="st5">Button</tspan></text>		</g>
		<g id="shape6-8" v:mID="6" v:groupContext="shape" transform="translate(56.6929,-418.11)">
			<title>Прямоугольник</title>
			<desc>HTML-button</desc>
			<v:userDefs>
				<v:ud v:nameU="visVersion" v:val="VT0(15):26"/>
			</v:userDefs>
			<v:textBlock v:margins="rect(4,4,4,4)" v:tabSpace="42.5197"/>
			<v:textRect cx="28.3465" cy="574.016" width="56.7" height="42.5197"/>
			<g id="shadow6-9" v:groupContext="shadow" v:shadowOffsetX="0.345598" v:shadowOffsetY="-1.97279" v:shadowType="1"
					transform="matrix(1,0,0,1,0.345598,1.97279)" class="st1">
				<rect x="0" y="552.756" width="56.6929" height="42.5197" class="st6"/>
			</g>
			<rect x="0" y="552.756" width="56.6929" height="42.5197" class="st7"/>
			<text x="14.89" y="571.02" class="st4" v:langID="2057"><v:paragraph v:horizAlign="1"/><v:tabList/>HTML-<tspan x="14.48"
						dy="1.2em" class="st5">button</tspan></text>		</g>
		<g id="shape7-15" v:mID="7" v:groupContext="shape" transform="translate(134.646,-418.11)">
			<title>Прямоугольник.7</title>
			<desc>Windows-button</desc>
			<v:userDefs>
				<v:ud v:nameU="visVersion" v:val="VT0(15):26"/>
			</v:userDefs>
			<v:textBlock v:margins="rect(4,4,4,4)" v:tabSpace="42.5197"/>
			<v:textRect cx="28.3465" cy="574.016" width="56.7" height="42.5197"/>
			<g id="shadow7-16" v:groupContext="shadow" v:shadowOffsetX="0.345598" v:shadowOffsetY="-1.97279" v:shadowType="1"
					transform="matrix(1,0,0,1,0.345598,1.97279)" class="st1">
				<rect x="0" y="552.756" width="56.6929" height="42.5197" class="st6"/>
			</g>
			<rect x="0" y="552.756" width="56.6929" height="42.5197" class="st7"/>
			<text x="7.8" y="571.02" class="st4" v:langID="2057"><v:paragraph v:horizAlign="1"/><v:tabList/>Windows-<tspan
						x="14.48" dy="1.2em" class="st5">button</tspan></text>		</g>
		<g id="shape8-22" v:mID="8" v:groupContext="shape" v:layerMember="0" transform="translate(77.9528,-510.236)">
			<title>Динамическая соединительная линия</title>
			<path d="M7.09 595.28 L7.09 637.84" class="st8"/>
		</g>
		<g id="shape9-28" v:mID="9" v:groupContext="shape" v:layerMember="0" transform="translate(85.0394,-510.236)">
			<title>Динамическая соединительная линия.9</title>
			<path d="M0 595.28 L0 617.95 L77.95 617.95 L77.95 637.84" class="st8"/>
		</g>
		<g id="shape10-33" v:mID="10" v:groupContext="shape" transform="translate(283.465,-510.236)">
			<title>Эллипс</title>
			<desc>Abstract class Factory</desc>
			<v:userDefs>
				<v:ud v:nameU="visVersion" v:val="VT0(15):26"/>
			</v:userDefs>
			<v:textBlock v:margins="rect(4,4,4,4)" v:tabSpace="42.5197"/>
			<v:textRect cx="56.6929" cy="566.929" width="99.22" height="49.6063"/>
			<g id="shadow10-34" v:groupContext="shadow" v:shadowOffsetX="0.345598" v:shadowOffsetY="-1.97279" v:shadowType="1"
					transform="matrix(1,0,0,1,0.345598,1.97279)" class="st1">
				<path d="M0 566.93 A56.6929 28.3465 0 0 1 113.39 566.93 A56.6929 28.3465 0 1 1 -0 566.93 Z" class="st10"/>
			</g>
			<path d="M0 566.93 A56.6929 28.3465 0 0 1 113.39 566.93 A56.6929 28.3465 0 1 1 -0 566.93 Z" class="st11"/>
			<text x="12.66" y="569.93" class="st4" v:langID="2057"><v:paragraph v:horizAlign="1"/><v:tabList/>Abstract class Factory</text>		</g>
		<g id="shape11-39" v:mID="11" v:groupContext="shape" transform="translate(283.465,-418.11)">
			<title>Прямоугольник.11</title>
			<desc>HtmlDialog</desc>
			<v:userDefs>
				<v:ud v:nameU="visVersion" v:val="VT0(15):26"/>
			</v:userDefs>
			<v:textBlock v:margins="rect(4,4,4,4)" v:tabSpace="42.5197"/>
			<v:textRect cx="28.3465" cy="574.016" width="56.7" height="42.5197"/>
			<g id="shadow11-40" v:groupContext="shadow" v:shadowOffsetX="0.345598" v:shadowOffsetY="-1.97279" v:shadowType="1"
					transform="matrix(1,0,0,1,0.345598,1.97279)" class="st1">
				<rect x="0" y="552.756" width="56.6929" height="42.5197" class="st6"/>
			</g>
			<rect x="0" y="552.756" width="56.6929" height="42.5197" class="st7"/>
			<text x="5.66" y="577.02" class="st4" v:langID="2057"><v:paragraph v:horizAlign="1"/><v:tabList/>HtmlDialog</text>		</g>
		<g id="shape12-45" v:mID="12" v:groupContext="shape" transform="translate(368.504,-418.11)">
			<title>Прямоугольник.12</title>
			<desc>Windows Dialog</desc>
			<v:userDefs>
				<v:ud v:nameU="visVersion" v:val="VT0(15):26"/>
			</v:userDefs>
			<v:textBlock v:margins="rect(4,4,4,4)" v:tabSpace="42.5197"/>
			<v:textRect cx="28.3465" cy="574.016" width="56.7" height="42.5197"/>
			<g id="shadow12-46" v:groupContext="shadow" v:shadowOffsetX="0.345598" v:shadowOffsetY="-1.97279" v:shadowType="1"
					transform="matrix(1,0,0,1,0.345598,1.97279)" class="st1">
				<rect x="0" y="552.756" width="56.6929" height="42.5197" class="st6"/>
			</g>
			<rect x="0" y="552.756" width="56.6929" height="42.5197" class="st7"/>
			<text x="9.33" y="571.02" class="st4" v:langID="2057"><v:paragraph v:horizAlign="1"/><v:tabList/>Windows <tspan
						x="15.59" dy="1.2em" class="st5">Dialog</tspan></text>		</g>
		<g id="shape13-52" v:mID="13" v:groupContext="shape" v:layerMember="0" transform="translate(85.0394,-411.024)">
			<title>Динамическая соединительная линия.13</title>
			<path d="M0 588.19 L0 619.17 L75.59 619.17 A2.3622 2.3622 0 1 1 80.31 619.17 L226.77 619.17 L226.77 595.23"
					class="st12"/>
		</g>
		<g id="shape14-58" v:mID="14" v:groupContext="shape" v:layerMember="0" transform="translate(162.992,-411.024)">
			<title>Динамическая соединительная линия.14</title>
			<path d="M0 588.19 L0 643.46 L233.86 643.46 L233.86 595.23" class="st12"/>
		</g>
		<g id="shape15-63" v:mID="15" v:groupContext="shape" v:layerMember="0" transform="translate(340.157,-510.236)">
			<title>Динамическая соединительная линия.15</title>
			<path d="M0 595.28 L0 605.91 L-28.35 605.91 L-28.35 637.84" class="st8"/>
		</g>
		<g id="shape16-68" v:mID="16" v:groupContext="shape" v:layerMember="0" transform="translate(340.157,-510.236)">
			<title>Динамическая соединительная линия.16</title>
			<path d="M0 595.28 L0 605.91 L56.69 605.91 L56.69 637.84" class="st8"/>
		</g>
		<g id="shape17-73" v:mID="17" v:groupContext="shape" transform="translate(340.157,-198.425)">
			<title>Квадрат</title>
			<desc>Main class</desc>
			<v:userDefs>
				<v:ud v:nameU="visVersion" v:val="VT0(15):26"/>
			</v:userDefs>
			<v:textBlock v:margins="rect(4,4,4,4)" v:tabSpace="42.5197"/>
			<v:textRect cx="56.6929" cy="538.583" width="113.39" height="113.386"/>
			<g id="shadow17-74" v:groupContext="shadow" v:shadowOffsetX="0.345598" v:shadowOffsetY="-1.97279" v:shadowType="1"
					transform="matrix(1,0,0,1,0.345598,1.97279)" class="st1">
				<rect x="0" y="481.89" width="113.386" height="113.386" class="st6"/>
			</g>
			<rect x="0" y="481.89" width="113.386" height="113.386" class="st7"/>
			<text x="35.55" y="541.58" class="st4" v:langID="2057"><v:paragraph v:horizAlign="1"/><v:tabList/>Main class</text>		</g>
		<g id="shape18-79" v:mID="18" v:groupContext="shape" transform="translate(357.165,-184.252)">
			<title>Треугольник</title>
			<desc>Условие</desc>
			<v:userDefs>
				<v:ud v:nameU="visVersion" v:val="VT0(15):26"/>
			</v:userDefs>
			<v:textBlock v:margins="rect(4,4,4,4)" v:tabSpace="42.5197"/>
			<v:textRect cx="39.685" cy="576.378" width="79.38" height="37.7953"/>
			<path d="M79.37 595.28 L39.69 538.58 L0 595.28 L79.37 595.28 Z" class="st14"/>
			<text x="22.16" y="579.38" class="st15" v:langID="1049"><v:paragraph v:horizAlign="1"/><v:tabList/>Условие</text>		</g>
		<g id="shape19-84" v:mID="19" v:groupContext="shape" v:layerMember="0" transform="translate(389.764,-196.063)">
			<title>Динамическая соединительная линия.19</title>
			<path d="M7.09 588.19 L7.09 595.28 L7.09 595.23" class="st8"/>
		</g>
		<g id="shape20-89" v:mID="20" v:groupContext="shape" v:layerMember="0" transform="translate(389.764,-538.583)">
			<title>Динамическая соединительная линия.20</title>
			<path d="M7.09 595.28 L14.17 595.28 L14.17 630.71 L177.17 630.71 L177.17 827.36 L7.09 827.36 L7.09 885.87" class="st16"/>
		</g>
		<g id="shape21-94" v:mID="21" v:groupContext="shape" transform="translate(232.441,-99.2126)">
			<title>Прямоугольник.21</title>
			<desc>new HtmlDialog</desc>
			<v:userDefs>
				<v:ud v:nameU="visVersion" v:val="VT0(15):26"/>
			</v:userDefs>
			<v:textBlock v:margins="rect(4,4,4,4)" v:tabSpace="42.5197"/>
			<v:textRect cx="39.685" cy="574.016" width="79.38" height="42.5197"/>
			<g id="shadow21-95" v:groupContext="shadow" v:shadowOffsetX="0.345598" v:shadowOffsetY="-1.97279" v:shadowType="1"
					transform="matrix(1,0,0,1,0.345598,1.97279)" class="st1">
				<rect x="0" y="552.756" width="79.3701" height="42.5197" class="st17"/>
			</g>
			<rect x="0" y="552.756" width="79.3701" height="42.5197" class="st18"/>
			<text x="7.18" y="577.02" class="st4" v:langID="1033"><v:paragraph v:horizAlign="1"/><v:tabList/>new <tspan class="st5"
						v:langID="2057">HtmlDialog</tspan></text>		</g>
		<g id="shape22-101" v:mID="22" v:groupContext="shape" transform="translate(481.89,-99.2126)">
			<title>Прямоугольник.22</title>
			<desc>new Windows Dialog</desc>
			<v:userDefs>
				<v:ud v:nameU="visVersion" v:val="VT0(15):26"/>
			</v:userDefs>
			<v:textBlock v:margins="rect(4,4,4,4)" v:tabSpace="42.5197"/>
			<v:textRect cx="45.3543" cy="574.016" width="90.71" height="42.5197"/>
			<g id="shadow22-102" v:groupContext="shadow" v:shadowOffsetX="0.345598" v:shadowOffsetY="-1.97279" v:shadowType="1"
					transform="matrix(1,0,0,1,0.345598,1.97279)" class="st1">
				<rect x="0" y="552.756" width="90.7087" height="42.5197" class="st17"/>
			</g>
			<rect x="0" y="552.756" width="90.7087" height="42.5197" class="st18"/>
			<text x="16.52" y="571.02" class="st4" v:langID="1033"><v:paragraph v:horizAlign="1"/><v:tabList/>new Windows <tspan
						x="32.6" dy="1.2em" class="st5">Dialog</tspan></text>		</g>
		<g id="shape23-108" v:mID="23" v:groupContext="shape" v:layerMember="0" transform="translate(357.165,-184.252)">
			<title>Динамическая соединительная линия.23</title>
			<path d="M0 595.28 L-85.04 595.28 L-85.04 630.76" class="st8"/>
		</g>
		<g id="shape25-113" v:mID="25" v:groupContext="shape" v:layerMember="0" transform="translate(436.535,-184.252)">
			<title>Динамическая соединительная линия.25</title>
			<path d="M0 595.28 L90.71 595.28 L90.71 630.76" class="st8"/>
		</g>
	</g>
</svg>
